<svg width="592" height="107" viewBox="0 0 592 107" fill="none" xmlns="http://www.w3.org/2000/svg">
<path d="M-0.00012207 39.5826C12.6653 39.5826 19.0083 46.8439 26.3398 55.2713C33.7949 63.8308 42.2591 73.5125 59.1875 73.5125C76.8367 73.5125 84.4154 55.2273 92.4265 35.8639C98.9961 19.9772 106.431 2.00003 118.375 2.00003C130.32 2.00003 137.754 19.9772 144.324 35.8419C152.335 55.2053 159.914 73.4905 177.563 73.4905C194.1 73.4905 202.585 66.5593 210.06 60.4422C217.392 54.4352 223.714 49.2643 236.771 49.2643C248.922 49.2643 255.985 62.5546 262.802 75.4049C270.525 89.9714 278.515 105 295.959 105C313.34 105 321.331 90.8956 329.074 77.2752C336.2 64.733 342.913 52.8949 355.146 52.8949C367.771 52.8949 374.114 60.4202 381.466 69.1338C388.921 78.0013 397.385 88.0351 414.355 88.0351C432.066 88.0351 439.624 68.5397 447.614 47.9221C454.204 30.9351 461.659 11.6817 473.563 11.6817C485.631 11.6817 492.715 26.4683 499.573 40.7708C507.275 56.8556 515.245 73.4905 532.792 73.4905C549.72 73.4905 558.184 63.7868 565.639 55.2493C572.991 46.8439 579.314 39.5606 592 39.5606" stroke="#563BFF" stroke-width="4"/>
</svg>
