<svg width="58" height="58" viewBox="0 0 58 58" fill="none" xmlns="http://www.w3.org/2000/svg">
<circle cx="29" cy="29" r="29" fill="#FFF3F0"/>
<circle cx="29" cy="29" r="26" stroke="#F7F8FB" stroke-width="6"/>
<path d="M55 29C55 43.3594 43.3594 55 29 55C14.6406 55 3 43.3594 3 29C3 14.6406 14.6406 3 29 3" stroke="#FF7049" stroke-width="6" stroke-linecap="round"/>
<path d="M19.1719 32.0771C18.9147 32.4124 18.5583 32.6663 18.1025 32.8389C17.6468 33.0114 17.1292 33.0977 16.5498 33.0977C15.9541 33.0977 15.4268 32.9626 14.9678 32.6924C14.5088 32.4222 14.154 32.0365 13.9033 31.5352C13.6559 31.0306 13.5273 30.443 13.5176 29.7725V29.2158C13.5176 28.1416 13.7747 27.3034 14.2891 26.7012C14.8034 26.0957 15.5212 25.793 16.4424 25.793C17.2334 25.793 17.8617 25.9883 18.3271 26.3789C18.7926 26.7695 19.0726 27.3327 19.167 28.0684H17.9561C17.8193 27.2122 17.3229 26.7842 16.4668 26.7842C15.9134 26.7842 15.4919 26.9844 15.2021 27.3848C14.9157 27.7819 14.7676 28.3662 14.7578 29.1377V29.6846C14.7578 30.4528 14.9189 31.0501 15.2412 31.4766C15.5667 31.8997 16.0176 32.1113 16.5938 32.1113C17.2253 32.1113 17.6745 31.9681 17.9414 31.6816V30.29H16.4766V29.3525H19.1719V32.0771ZM26.2031 29.6309C26.2031 30.3275 26.0827 30.9395 25.8418 31.4668C25.6009 31.9909 25.2559 32.3945 24.8066 32.6777C24.3607 32.9577 23.8464 33.0977 23.2637 33.0977C22.6875 33.0977 22.1732 32.9577 21.7207 32.6777C21.2715 32.3945 20.9232 31.9925 20.6758 31.4717C20.4316 30.9508 20.3079 30.3503 20.3047 29.6699V29.2695C20.3047 28.5762 20.4268 27.9642 20.6709 27.4336C20.9183 26.903 21.265 26.4977 21.7109 26.2178C22.1602 25.9346 22.6745 25.793 23.2539 25.793C23.8333 25.793 24.346 25.9329 24.792 26.2129C25.2412 26.4896 25.5879 26.89 25.832 27.4141C26.0762 27.9349 26.1999 28.542 26.2031 29.2354V29.6309ZM24.9678 29.2598C24.9678 28.472 24.818 27.8682 24.5186 27.4482C24.2223 27.0283 23.8008 26.8184 23.2539 26.8184C22.7201 26.8184 22.3018 27.0283 21.999 27.4482C21.6995 27.8649 21.5465 28.4557 21.54 29.2207V29.6309C21.54 30.4121 21.6914 31.016 21.9941 31.4424C22.3001 31.8688 22.7233 32.082 23.2637 32.082C23.8105 32.082 24.2305 31.8737 24.5234 31.457C24.8197 31.0404 24.9678 30.4316 24.9678 29.6309V29.2598ZM31.3057 31.3447H28.5518L27.9756 33H26.6914L29.377 25.8906H30.4854L33.1758 33H31.8867L31.3057 31.3447ZM28.8984 30.3486H30.959L29.9287 27.3994L28.8984 30.3486ZM35.2217 32.0137H38.4492V33H33.9863V25.8906H35.2217V32.0137ZM43.1123 31.1689C43.1123 30.8564 43.0016 30.6156 42.7803 30.4463C42.5622 30.277 42.1667 30.1061 41.5938 29.9336C41.0208 29.7611 40.5651 29.569 40.2266 29.3574C39.5788 28.9505 39.2549 28.4199 39.2549 27.7656C39.2549 27.1927 39.4876 26.7207 39.9531 26.3496C40.4219 25.9785 41.029 25.793 41.7744 25.793C42.2692 25.793 42.7103 25.8841 43.0977 26.0664C43.485 26.2487 43.7894 26.5091 44.0107 26.8477C44.2321 27.1829 44.3428 27.5557 44.3428 27.9658H43.1123C43.1123 27.5947 42.9951 27.305 42.7607 27.0967C42.5296 26.8851 42.1976 26.7793 41.7646 26.7793C41.361 26.7793 41.0469 26.8656 40.8223 27.0381C40.6009 27.2106 40.4902 27.4515 40.4902 27.7607C40.4902 28.0212 40.6107 28.2393 40.8516 28.415C41.0924 28.5876 41.4896 28.7568 42.043 28.9229C42.5964 29.0856 43.0407 29.2728 43.376 29.4844C43.7113 29.6927 43.957 29.9336 44.1133 30.207C44.2695 30.4772 44.3477 30.7946 44.3477 31.1592C44.3477 31.7516 44.1198 32.2236 43.6641 32.5752C43.2116 32.9235 42.5964 33.0977 41.8184 33.0977C41.304 33.0977 40.8304 33.0033 40.3975 32.8145C39.9678 32.6224 39.6325 32.3587 39.3916 32.0234C39.154 31.6882 39.0352 31.2975 39.0352 30.8516H40.2705C40.2705 31.2552 40.404 31.5677 40.6709 31.7891C40.9378 32.0104 41.3203 32.1211 41.8184 32.1211C42.248 32.1211 42.5703 32.0348 42.7852 31.8623C43.0033 31.6865 43.1123 31.4554 43.1123 31.1689Z" fill="#FF7049"/>
</svg>
