<svg width="58" height="58" viewBox="0 0 58 58" fill="none" xmlns="http://www.w3.org/2000/svg">
<circle cx="28.9999" cy="29" r="29" fill="#EFECFF"/>
<circle cx="28.9999" cy="29" r="26" stroke="#F7F8FB" stroke-width="6"/>
<path d="M54.9999 29C54.9999 43.3594 43.3593 55 28.9999 55C14.6405 55 2.99988 43.3594 2.99988 29C2.99988 14.6406 14.6405 3.00003 28.9999 3.00003" stroke="#563BFF" stroke-width="6" stroke-linecap="round"/>
<path d="M19.9227 25.8907V30.6416C19.9227 31.3968 19.6802 31.9958 19.1952 32.4385C18.7134 32.878 18.0705 33.0977 17.2665 33.0977C16.4527 33.0977 15.8065 32.8812 15.328 32.4483C14.8495 32.0121 14.6102 31.4082 14.6102 30.6367V25.8907H15.8407V30.6465C15.8407 31.1218 15.9611 31.4847 16.202 31.7354C16.4429 31.986 16.7977 32.1114 17.2665 32.1114C18.217 32.1114 18.6923 31.6101 18.6923 30.6075V25.8907H19.9227ZM24.9618 31.169C24.9618 30.8565 24.8511 30.6156 24.6298 30.4463C24.4117 30.277 24.0162 30.1062 23.4432 29.9336C22.8703 29.7611 22.4146 29.569 22.076 29.3575C21.4283 28.9506 21.1044 28.42 21.1044 27.7657C21.1044 27.1927 21.3371 26.7207 21.8026 26.3496C22.2714 25.9785 22.8785 25.793 23.6239 25.793C24.1187 25.793 24.5598 25.8841 24.9471 26.0664C25.3345 26.2487 25.6389 26.5091 25.8602 26.8477C26.0816 27.183 26.1923 27.5557 26.1923 27.9659H24.9618C24.9618 27.5948 24.8446 27.305 24.6102 27.0967C24.3791 26.8851 24.0471 26.7793 23.6141 26.7793C23.2105 26.7793 22.8964 26.8656 22.6718 27.0381C22.4504 27.2106 22.3397 27.4515 22.3397 27.7608C22.3397 28.0212 22.4602 28.2393 22.701 28.4151C22.9419 28.5876 23.3391 28.7569 23.8925 28.9229C24.4458 29.0856 24.8902 29.2728 25.2255 29.4844C25.5608 29.6927 25.8065 29.9336 25.9628 30.2071C26.119 30.4772 26.1971 30.7946 26.1971 31.1592C26.1971 31.7517 25.9693 32.2237 25.5135 32.5752C25.0611 32.9235 24.4458 33.0977 23.6678 33.0977C23.1535 33.0977 22.6799 33.0033 22.2469 32.8145C21.8173 32.6224 21.482 32.3588 21.2411 32.0235C21.0035 31.6882 20.8846 31.2976 20.8846 30.8516H22.12C22.12 31.2552 22.2535 31.5677 22.5204 31.7891C22.7873 32.0104 23.1698 32.1211 23.6678 32.1211C24.0975 32.1211 24.4198 32.0349 24.6346 31.8623C24.8527 31.6866 24.9618 31.4554 24.9618 31.169ZM31.4364 29.8262H28.5165V32.0137H31.9296V33H27.2811V25.8907H31.8954V26.8867H28.5165V28.8496H31.4364V29.8262ZM35.5477 30.2608H34.1708V33H32.9354V25.8907H35.4354C36.2557 25.8907 36.8889 26.0746 37.3348 26.4424C37.7808 26.8103 38.0038 27.3425 38.0038 28.0391C38.0038 28.5144 37.8882 28.9131 37.6571 29.2354C37.4292 29.5544 37.1102 29.8002 36.7001 29.9727L38.2968 32.9366V33H36.9735L35.5477 30.2608ZM34.1708 29.2696H35.4403C35.857 29.2696 36.1825 29.1654 36.4169 28.9571C36.6512 28.7455 36.7684 28.4574 36.7684 28.0928C36.7684 27.7119 36.6594 27.4173 36.4413 27.209C36.2264 27.0007 35.9042 26.8933 35.4745 26.8867H34.1708V29.2696ZM42.8915 31.169C42.8915 30.8565 42.7808 30.6156 42.5594 30.4463C42.3413 30.277 41.9458 30.1062 41.3729 29.9336C40.8 29.7611 40.3443 29.569 40.0057 29.3575C39.358 28.9506 39.0341 28.42 39.0341 27.7657C39.0341 27.1927 39.2668 26.7207 39.7323 26.3496C40.201 25.9785 40.8081 25.793 41.5536 25.793C42.0484 25.793 42.4895 25.8841 42.8768 26.0664C43.2642 26.2487 43.5686 26.5091 43.7899 26.8477C44.0113 27.183 44.1219 27.5557 44.1219 27.9659H42.8915C42.8915 27.5948 42.7743 27.305 42.5399 27.0967C42.3088 26.8851 41.9768 26.7793 41.5438 26.7793C41.1402 26.7793 40.826 26.8656 40.6014 27.0381C40.3801 27.2106 40.2694 27.4515 40.2694 27.7608C40.2694 28.0212 40.3899 28.2393 40.6307 28.4151C40.8716 28.5876 41.2688 28.7569 41.8221 28.9229C42.3755 29.0856 42.8199 29.2728 43.1552 29.4844C43.4904 29.6927 43.7362 29.9336 43.8925 30.2071C44.0487 30.4772 44.1268 30.7946 44.1268 31.1592C44.1268 31.7517 43.899 32.2237 43.4432 32.5752C42.9908 32.9235 42.3755 33.0977 41.5975 33.0977C41.0832 33.0977 40.6096 33.0033 40.1766 32.8145C39.7469 32.6224 39.4117 32.3588 39.1708 32.0235C38.9331 31.6882 38.8143 31.2976 38.8143 30.8516H40.0497C40.0497 31.2552 40.1831 31.5677 40.4501 31.7891C40.717 32.0104 41.0995 32.1211 41.5975 32.1211C42.0272 32.1211 42.3495 32.0349 42.5643 31.8623C42.7824 31.6866 42.8915 31.4554 42.8915 31.169Z" fill="#563BFF"/>
</svg>
